<svg xmlns="http://www.w3.org/2000/svg" xmlns:xlink="http://www.w3.org/1999/xlink" width="68.492" height="84.089" viewBox="0 0 68.492 84.089">
  <defs>
    <linearGradient id="linear-gradient" x1="0.5" x2="0.5" y2="1" gradientUnits="objectBoundingBox">
      <stop offset="0" stop-color="#2241f2"/>
      <stop offset="1" stop-color="#277ff2"/>
    </linearGradient>
  </defs>
  <path id="company" d="M111.779,78.664h-5.425V12.207a2.713,2.713,0,0,0-2.713-2.713H83.3V2.713A2.713,2.713,0,0,0,80.585,0H61.767a2.713,2.713,0,0,0-2.713,2.713V9.494h-2.2a2.713,2.713,0,0,0-2.713,2.713V78.664H48.713a2.713,2.713,0,0,0,0,5.425h63.067a2.713,2.713,0,1,0,0-5.425ZM64.479,5.425H77.873V9.494H64.479ZM74.821,78.664V67.136h10.85V78.664Zm16.275,0V67.136h1.187a2.713,2.713,0,0,0,0-5.425H68.209a2.713,2.713,0,0,0,0,5.425H69.4V78.664H59.563V14.919h41.366V78.664ZM76.347,22.887A2.713,2.713,0,0,1,73.634,25.6H70.583a2.713,2.713,0,0,1,0-5.425h3.052A2.713,2.713,0,0,1,76.347,22.887Zm16.106,0A2.713,2.713,0,0,1,89.74,25.6H86.688a2.713,2.713,0,0,1,0-5.425H89.74A2.713,2.713,0,0,1,92.453,22.887ZM76.347,33.059a2.713,2.713,0,0,1-2.713,2.713H70.583a2.713,2.713,0,1,1,0-5.425h3.052A2.713,2.713,0,0,1,76.347,33.059Zm16.106,0a2.713,2.713,0,0,1-2.713,2.713H86.688a2.713,2.713,0,1,1,0-5.425H89.74A2.713,2.713,0,0,1,92.453,33.059ZM76.347,43.231a2.713,2.713,0,0,1-2.713,2.713H70.583a2.713,2.713,0,0,1,0-5.425h3.052A2.713,2.713,0,0,1,76.347,43.231Zm16.106,0a2.713,2.713,0,0,1-2.713,2.713H86.688a2.713,2.713,0,0,1,0-5.425H89.74A2.713,2.713,0,0,1,92.453,43.231ZM76.347,53.4a2.713,2.713,0,0,1-2.713,2.713H70.583a2.713,2.713,0,0,1,0-5.425h3.052A2.713,2.713,0,0,1,76.347,53.4Zm16.106,0a2.713,2.713,0,0,1-2.713,2.713H86.688a2.713,2.713,0,0,1,0-5.425H89.74A2.713,2.713,0,0,1,92.453,53.4Z" transform="translate(-46)" fill="url(#linear-gradient)"/>
</svg>
