<svg id="Componente_4_1" data-name="Componente 4 – 1" xmlns="http://www.w3.org/2000/svg" width="101" height="101" viewBox="0 0 101 101">
  <circle id="Elipse_145" data-name="Elipse 145" cx="50.5" cy="50.5" r="50.5" fill="#fff"/>
  <g id="computer" transform="translate(25.616 28)">
    <path id="Caminho_1833" data-name="Caminho 1833" d="M140.509,434.872h-3.646V433H119.124v1.872h-3.646a1.478,1.478,0,0,0,0,2.956h25.031a1.478,1.478,0,1,0,0-2.956Z" transform="translate(-102.766 -393.285)" fill="#2241f2"/>
    <path id="Caminho_1834" data-name="Caminho 1834" d="M91.478,283a1.478,1.478,0,1,0,1.478,1.478A1.48,1.48,0,0,0,91.478,283Z" transform="translate(-81.131 -258.067)" fill="#04579e"/>
    <path id="Caminho_1835" data-name="Caminho 1835" d="M48.978,30H1.478A1.478,1.478,0,0,0,0,31.478v33.8a1.478,1.478,0,0,0,1.478,1.478h47.5a1.478,1.478,0,0,0,1.478-1.478v-33.8A1.478,1.478,0,0,0,48.978,30ZM7.914,37.55a1.478,1.478,0,0,1,2.021-.114l1.1-1.261a1.478,1.478,0,1,1,2.231,1.94L11.154,40.54a1.478,1.478,0,0,1-1.045.507l-.07,0a1.478,1.478,0,0,1-1.018-.407l-1.053-1a1.478,1.478,0,0,1-.053-2.09Zm5.349,8.733-2.109,2.425a1.478,1.478,0,0,1-1.045.507l-.07,0A1.478,1.478,0,0,1,9.02,48.81l-1.053-1a1.478,1.478,0,0,1,1.968-2.2l1.1-1.261a1.478,1.478,0,1,1,2.231,1.94ZM10.348,60.845a4.435,4.435,0,1,1,4.435-4.435,4.44,4.44,0,0,1-4.435,4.435Zm32.718-2.956H20.005a1.478,1.478,0,1,1,0-2.956h23.06a1.478,1.478,0,0,1,0,2.956Zm0-9.885H20.005a1.478,1.478,0,1,1,0-2.956h23.06a1.478,1.478,0,0,1,0,2.956Zm0-8.169H20.005a1.478,1.478,0,0,1,0-2.956h23.06a1.478,1.478,0,0,1,0,2.956Z" transform="translate(0 -30)" fill="#2241f2"/>
  </g>
</svg>
