<svg id="gift" xmlns="http://www.w3.org/2000/svg" xmlns:xlink="http://www.w3.org/1999/xlink" width="83.17" height="77.87" viewBox="0 0 83.17 77.87">
  <defs>
    <linearGradient id="linear-gradient" x1="0.5" x2="0.5" y2="1" gradientUnits="objectBoundingBox">
      <stop offset="0" stop-color="#2bb5a2"/>
      <stop offset="1" stop-color="#04668c"/>
    </linearGradient>
  </defs>
  <g id="Grupo_733" data-name="Grupo 733" transform="translate(0 0)">
    <path id="Caminho_1839" data-name="Caminho 1839" d="M77.972,37H61.525a20.2,20.2,0,0,0,2.9-2.324,10.875,10.875,0,0,0,0-15.293,10.989,10.989,0,0,0-15.246,0C46.929,21.649,40.946,30.855,41.772,37H41.4c.821-6.149-5.157-15.355-7.407-17.616a10.989,10.989,0,0,0-15.246,0,10.879,10.879,0,0,0-.005,15.293A20.571,20.571,0,0,0,21.645,37H5.2A5.207,5.207,0,0,0,0,42.2v13a2.6,2.6,0,0,0,2.6,2.6H5.2V88.986a5.207,5.207,0,0,0,5.2,5.2H72.774a5.207,5.207,0,0,0,5.2-5.2V57.8h2.6a2.6,2.6,0,0,0,2.6-2.6v-13A5.207,5.207,0,0,0,77.972,37ZM22.43,23.053a5.541,5.541,0,0,1,7.875,0c3.5,3.524,6.986,12.528,5.775,13.78a1.714,1.714,0,0,1-.962.172c-3.592,0-10.448-3.732-12.689-5.988A5.67,5.67,0,0,1,22.43,23.053ZM38.986,88.986H10.4V57.8h28.59Zm0-36.387H5.2V42.2H38.986ZM52.865,23.053a5.6,5.6,0,0,1,7.875,7.964C58.5,33.272,51.644,37,48.052,37a1.708,1.708,0,0,1-.967-.172C45.879,35.58,49.362,26.577,52.865,23.053ZM72.774,88.986H44.184V57.8h28.59Zm5.2-36.387H44.184V42.2H77.972Z" transform="translate(0 -16.314)" fill="url(#linear-gradient)"/>
  </g>
</svg>
