<svg xmlns="http://www.w3.org/2000/svg" xmlns:xlink="http://www.w3.org/1999/xlink" width="79.563" height="79.542" viewBox="0 0 79.563 79.542">
  <defs>
    <linearGradient id="linear-gradient" x1="0.5" x2="0.5" y2="1" gradientUnits="objectBoundingBox">
      <stop offset="0" stop-color="#f2a341"/>
      <stop offset="1" stop-color="#ffc830"/>
    </linearGradient>
  </defs>
  <g id="Grupo_736" data-name="Grupo 736" transform="translate(0 0)">
    <g id="Grupo_735" data-name="Grupo 735" transform="translate(0)">
      <path id="Caminho_1840" data-name="Caminho 1840" d="M79.543,34.476A6.945,6.945,0,0,0,77.122,29.7L70.24,23.8V7.042a2.331,2.331,0,0,0-2.331-2.331H58.585a2.3,2.3,0,0,0-2.3,2.331v4.775L44.489,1.763A6.956,6.956,0,0,0,35.4,1.757L2.445,29.7a6.989,6.989,0,0,0-.756,9.864A7.065,7.065,0,0,0,9.357,41.6V77.28a2.3,2.3,0,0,0,2.3,2.331H67.909A2.331,2.331,0,0,0,70.24,77.28V41.6a6.991,6.991,0,0,0,9.3-7.127ZM60.916,9.373h4.693V19.808l-4.693-4ZM49.293,74.949H30.3V56.271H49.293Zm16.316,0H53.924V53.971a2.331,2.331,0,0,0-2.331-2.331H27.973a2.3,2.3,0,0,0-2.3,2.331V74.949H13.988V38.25L39.93,16.244,65.609,38.229v36.72Zm8.732-38.42a2.332,2.332,0,0,1-3.288.253l-29.6-25.371A2.331,2.331,0,0,0,38.43,11.4L8.514,36.781A2.331,2.331,0,0,1,5.47,33.249L38.421,5.3a2.32,2.32,0,0,1,3.035,0l32.633,27.94A2.333,2.333,0,0,1,74.341,36.528Z" transform="translate(-0.001 -0.068)" fill="url(#linear-gradient)"/>
    </g>
  </g>
</svg>
