<svg xmlns="http://www.w3.org/2000/svg" xmlns:xlink="http://www.w3.org/1999/xlink" width="70.001" height="76.106" viewBox="0 0 70.001 76.106">
  <defs>
    <clipPath id="clip-path">
      <path id="Caminho_2150" data-name="Caminho 2150" d="M58.405,16.693h3.411a1.205,1.205,0,0,0,1.205-1.137v-4.1a.591.591,0,0,1,.591-.591h1.762a.591.591,0,0,0,.591-.625V8.54a.591.591,0,0,0-.591-.58H63.648a.591.591,0,0,0-.591.6v1.672a.6.6,0,0,1-.6.6H58.405a1.137,1.137,0,0,0-1.137,1.137v3.411a1.137,1.137,0,0,0,1.137,1.137M26.1,46.735V43.324a1.205,1.205,0,0,1,1.194-1.251h3.411a1.217,1.217,0,0,1,1.205,1.205v4.037a.6.6,0,0,0,.6.6h1.717a.6.6,0,0,1,.6.6v1.717a.6.6,0,0,1-.6.6H32.548a.6.6,0,0,1-.6-.6V48.532a.6.6,0,0,0-.6-.6H27.294A1.137,1.137,0,0,1,26.1,46.735Zm17.273-7.266H36.835a2.274,2.274,0,0,1-2.274-2.274V30.7a2.274,2.274,0,0,1,2.274-2.274h6.572a2.274,2.274,0,0,0,2.274-2.274v-11.6A3.582,3.582,0,0,1,48.4,11.087H54.46a2.274,2.274,0,0,0,2.274-2.274V2.274A2.274,2.274,0,0,0,54.46,0H47.933a2.274,2.274,0,0,0-2.274,2.274V8.813a2.274,2.274,0,0,1-2.274,2.172h-22.5a2.013,2.013,0,0,0-1.467.6L9.783,21.218a2.013,2.013,0,0,0-.6,1.524V74.025a2.081,2.081,0,0,0,2.07,2.081H60.964a2.092,2.092,0,0,0,2.092-2.081V29.565a1.137,1.137,0,0,1,1.137-1.194H67.6a1.205,1.205,0,0,0,1.137-1.205V23.754A1.205,1.205,0,0,0,67.6,22.56H64.193a1.205,1.205,0,0,0-1.137,1.194v3.411a1.217,1.217,0,0,1-1.205,1.262H47.933A2.274,2.274,0,0,0,45.659,30.7V37.24A2.274,2.274,0,0,1,43.373,39.469Z" transform="translate(-9.178)" fill="none"/>
    </clipPath>
  </defs>
  <g id="Grupo_754" data-name="Grupo 754" transform="translate(-17144 -1316)">
    <g id="Grupo_752" data-name="Grupo 752" transform="translate(17154.438 1316)" clip-path="url(#clip-path)">
      <rect id="Retângulo_684" data-name="Retângulo 684" width="59.721" height="76.106" transform="translate(0.002)" fill="#fff"/>
    </g>
    <path id="Caminho_2151" data-name="Caminho 2151" d="M11.041,20.87l9.631-9.688a1.979,1.979,0,0,1,1.467-.614H44.631a2.274,2.274,0,0,0,2.274-2.183V1.79A2.274,2.274,0,0,1,47.758.05H11.712a2.013,2.013,0,0,0-1.478.614l-9.62,9.7A2.013,2.013,0,0,0,0,11.842V63.569a2.092,2.092,0,0,0,2.081,2.092h8.358V22.36a2.07,2.07,0,0,1,.6-1.49" transform="translate(17144 1316.007)" fill="#f9f9f9" fill-rule="evenodd" opacity="0.4"/>
  </g>
</svg>
