<svg id="Componente_1_1" data-name="Componente 1 – 1" xmlns="http://www.w3.org/2000/svg" xmlns:xlink="http://www.w3.org/1999/xlink" width="986" height="639.552" viewBox="0 0 986 639.552">
  <defs>
    <filter id="Retângulo_686" x="335" y="235" width="651" height="223" filterUnits="userSpaceOnUse">
      <feOffset dy="3" input="SourceAlpha"/>
      <feGaussianBlur stdDeviation="15" result="blur"/>
      <feFlood flood-opacity="0.161"/>
      <feComposite operator="in" in2="blur"/>
      <feComposite in="SourceGraphic"/>
    </filter>
    <clipPath id="clip-path">
      <path id="Caminho_2152" data-name="Caminho 2152" d="M56.722,16.03h3.314a1.165,1.165,0,0,0,1.154-1.154V11.006a.577.577,0,0,1,.577-.567h1.657A.588.588,0,0,0,64,9.863V8.206a.577.577,0,0,0-.577-.577H61.767a.577.577,0,0,0-.577.577V9.863a.577.577,0,0,1-.577.577H56.722a1.154,1.154,0,0,0-1.154,1.144V14.9a1.165,1.165,0,0,0,1.154,1.133M25.659,44.891V41.577a1.165,1.165,0,0,1,1.154-1.154h3.314a1.165,1.165,0,0,1,1.154,1.154v3.891a.577.577,0,0,0,.567.577h1.71a.577.577,0,0,1,.577.567v1.7a.577.577,0,0,1-.577.577h-1.71a.577.577,0,0,1-.567-.577V46.655a.577.577,0,0,0-.577-.567H26.813a1.165,1.165,0,0,1-1.154-1.2ZM42.27,37.943H35.985a2.2,2.2,0,0,1-2.191-2.138V29.467a2.2,2.2,0,0,1,2.191-2.138H42.3a2.138,2.138,0,0,0,2.138-2.138v-11.2a3.453,3.453,0,0,1,2.619-3.3h5.879a2.138,2.138,0,0,0,2.138-2.138V2.188A2.191,2.191,0,0,0,52.938.05h-6.3A2.191,2.191,0,0,0,44.5,2.241V8.473a2.191,2.191,0,0,1-2.191,2.138H20.646a1.924,1.924,0,0,0-1.422.588L9.978,20.391a1.924,1.924,0,0,0-.588,1.422V71.176a2,2,0,0,0,2,2H59.212a2.01,2.01,0,0,0,2.01-2V28.419a1.154,1.154,0,0,1,1.154-1.154h3.25A1.154,1.154,0,0,0,66.77,26.11V22.8a1.154,1.154,0,0,0-1.144-1.133H62.312a1.154,1.154,0,0,0-1.154,1.154v3.314A1.165,1.165,0,0,1,60,27.286H46.642A2.138,2.138,0,0,0,44.5,29.424v6.3a2.191,2.191,0,0,1-2.234,2.223Z" transform="translate(-9.39 -0.05)" fill="none"/>
    </clipPath>
    <linearGradient id="linear-gradient" x1="0.5" y1="1.063" x2="0.5" gradientUnits="objectBoundingBox">
      <stop offset="0" stop-color="#1e27e7"/>
      <stop offset="1" stop-color="#2cd1ff"/>
    </linearGradient>
  </defs>
  <g id="undraw_add_document_0hek" transform="translate(0)">
    <path id="Caminho_1805" data-name="Caminho 1805" d="M941.532,725.07c13.358-15.2,76.265-90.009,31.554-102.342-33.581-9.263-37.322,41.7-36.195,75.9-5.377-23.042-15.813-49.958-34.148-38.082-26.424,17.115,23.088,54.992,36.022,64.29.212,1.891.352,2.942.352,2.942s.531-.578,1.476-1.643c.739.517,1.15.8,1.15.8S941.675,726.258,941.532,725.07Z" transform="translate(-211.097 -130.224)" fill="#e6e6e6"/>
    <path id="Caminho_1806" data-name="Caminho 1806" d="M264.281,766.677c15.3-17.408,87.349-103.092,36.14-117.217-38.461-10.609-42.746,47.76-41.456,86.93-6.159-26.391-18.111-57.219-39.111-43.617-30.264,19.6,26.444,62.984,41.257,73.634.243,2.166.4,3.369.4,3.369s.608-.663,1.691-1.882c.846.593,1.317.911,1.317.911S264.445,768.037,264.281,766.677Z" transform="translate(-211.097 -130.224)" fill="#e6e6e6"/>
    <path id="Caminho_1807" data-name="Caminho 1807" d="M432.9,181.278a5.006,5.006,0,0,0-5,5v535a5.006,5.006,0,0,0,5,5h431a5.006,5.006,0,0,0,5-5v-535a5.006,5.006,0,0,0-5-5Z" transform="translate(-211.097 -130.224)" fill="#e6e6e6"/>
    <path id="Caminho_1808" data-name="Caminho 1808" d="M795.4,414.9h-294a7.5,7.5,0,0,1,0-15h294a7.5,7.5,0,1,1,0,15Z" transform="translate(-211.097 -130.224)" fill="#fff"/>
    <path id="Caminho_1809" data-name="Caminho 1809" d="M797.927,275.153H602.878c-2.748,0-4.976-3.358-4.976-7.5s2.228-7.5,4.976-7.5H797.927c2.748,0,4.976,3.358,4.976,7.5S800.675,275.153,797.927,275.153Z" transform="translate(-211.097 -130.224)" fill="#fff"/>
    <path id="Caminho_1810" data-name="Caminho 1810" d="M797.927,318.153H602.878c-2.748,0-4.976-3.358-4.976-7.5s2.228-7.5,4.976-7.5H797.927c2.748,0,4.976,3.358,4.976,7.5S800.675,318.153,797.927,318.153Z" transform="translate(-211.097 -130.224)" fill="#fff"/>
    <path id="Caminho_1811" data-name="Caminho 1811" d="M795.4,463.4h-294a7.5,7.5,0,1,1,0-15h294a7.5,7.5,0,1,1,0,15Z" transform="translate(-211.097 -130.224)" fill="#fff"/>
    <path id="Caminho_1812" data-name="Caminho 1812" d="M795.4,511.9h-294a7.5,7.5,0,1,1,0-15h294a7.5,7.5,0,1,1,0,15Z" transform="translate(-211.097 -130.224)" fill="#fff"/>
    <path id="Caminho_1813" data-name="Caminho 1813" d="M795.4,560.4h-294a7.5,7.5,0,1,1,0-15h294a7.5,7.5,0,1,1,0,15Z" transform="translate(-211.097 -130.224)" fill="#fff"/>
    <path id="Caminho_1814" data-name="Caminho 1814" d="M795.4,608.9h-294a7.5,7.5,0,1,1,0-15h294a7.5,7.5,0,0,1,0,15Z" transform="translate(-211.097 -130.224)" fill="#fff"/>
    <path id="Caminho_1815" data-name="Caminho 1815" d="M795.4,657.4h-294a7.5,7.5,0,1,1,0-15h294a7.5,7.5,0,0,1,0,15Z" transform="translate(-211.097 -130.224)" fill="#fff"/>
    <circle id="Elipse_140" data-name="Elipse 140" cx="39.5" cy="39.5" r="39.5" transform="translate(282.805 119.929)" fill="#fff"/>
    <path id="Caminho_1816" data-name="Caminho 1816" d="M594.265,414.9" transform="translate(-211.097 -130.224)" fill="#fff"/>
    <path id="Caminho_1817" data-name="Caminho 1817" d="M503.507,428.188,444.6,459.5l-.746-26.1c19.225-3.209,37.517-8.8,54.429-17.895l6.16-15.22a10.318,10.318,0,0,1,17.536-2.678h0a10.317,10.317,0,0,1-.908,14.069Z" transform="translate(-211.097 -130.224)" fill="#ffb8b8"/>
    <path id="Caminho_1818" data-name="Caminho 1818" d="M359.583,608.993h0a11.574,11.574,0,0,1,1.469-9.363l12.94-19.858a22.612,22.612,0,0,1,29.335-7.739h0c-5.438,9.256-4.68,17.377,1.878,24.434a117.629,117.629,0,0,0-27.936,19.045,11.574,11.574,0,0,1-17.686-6.518Z" transform="translate(-211.097 -130.224)" fill="#2f2e41"/>
    <path id="Caminho_1819" data-name="Caminho 1819" d="M506.19,583.029h0a22.2,22.2,0,0,1-18.871,10.779l-85.96.651-3.728-21.623,38.026-11.184L403.6,537.047l35.044-41.008,63.65,59.324a22.2,22.2,0,0,1,3.9,27.666Z" transform="translate(-211.097 -130.224)" fill="#2f2e41"/>
    <path id="Caminho_1820" data-name="Caminho 1820" d="M387.938,730.905H367.806c-18.075-123.9-36.473-248.142,17.895-294.515l64.122,10.439-8.2,54.429-35.789,41.008Z" transform="translate(-211.097 -130.224)" fill="#2f2e41"/>
    <path id="Caminho_1821" data-name="Caminho 1821" d="M403.634,768.972h0a11.574,11.574,0,0,1-9.363-1.469l-19.858-12.938a22.612,22.612,0,0,1-7.741-29.334h0c9.257,5.438,17.377,4.679,24.434-1.88a117.628,117.628,0,0,0,19.047,27.935,11.574,11.574,0,0,1-6.518,17.686Z" transform="translate(-211.097 -130.224)" fill="#2f2e41"/>
    <path id="Caminho_1822" data-name="Caminho 1822" d="M475.811,350.278h-95.7c-17.674-25-19.748-48.913,0-71.294,0-9.9,12.783-17.919,28.551-17.919h0c12.352,0,23.3,4.985,27.139,12.354Z" transform="translate(-211.097 -130.224)" fill="#2f2e41"/>
    <path id="Caminho_1823" data-name="Caminho 1823" d="M435.657,353.628l-37.28-8.947c6.192-12.674,6.7-26.776,3.728-41.754l25.351-.746C428.249,320.806,430.653,338.207,435.657,353.628Z" transform="translate(-211.097 -130.224)" fill="#ffb8b8"/>
    <path id="Caminho_1824" data-name="Caminho 1824" d="M445.9,469.278c-27.139,18.493-46.314.633-60.947-26.923,2.033-16.862-1.259-37.041-7.357-58.966a40.138,40.138,0,0,1,24.506-48.4h0l32.061,13.421c27.224,22.19,32.582,46.227,22.368,71.578Z" transform="translate(-211.097 -130.224)" fill="#277ff2"/>
    <path id="Caminho_1825" data-name="Caminho 1825" d="M367.806,372.268l-29.824,15.658,52.938,31.315,7.366,18.169a9.637,9.637,0,0,1-5.789,12.731h0a9.637,9.637,0,0,1-12.762-8.544l-.745-12.663-67.284-22.2a15.733,15.733,0,0,1-9.873-9.611h0a15.733,15.733,0,0,1,5.9-18.3l54.1-37.118Z" transform="translate(-211.097 -130.224)" fill="#ffb8b8"/>
    <path id="Caminho_1826" data-name="Caminho 1826" d="M397.631,375.25c-12.439-5.451-23.749.47-38.026,5.219l-2.237-39.517c14.176-7.556,27.692-9.593,40.263-3.728Z" transform="translate(-211.097 -130.224)" fill="#277ff2"/>
    <path id="Caminho_1827" data-name="Caminho 1827" d="M474.056,350.278H452.947c-13.138-24.236-12.541-67.055-40.777-57.512-18.141-10.767-7.732,31.484-12.243,57.512H381.57c-4.988-25.43-5.057-50.913.811-71.635a9.656,9.656,0,0,1,3.512-7.059,19.953,19.953,0,0,1,2.945-2.238c6.487-4.087,10.843-6.414,20.32-6.414a57.2,57.2,0,0,1,15.688,2.157c.664.194,1.32.4,1.953.621.872.3,1.715.626,2.52.977,4.146,1.783,7.4,4.2,8.947,7.216C456.131,295.208,465.25,322.089,474.056,350.278Z" transform="translate(-211.097 -130.224)" fill="#2f2e41"/>
    <circle id="Elipse_141" data-name="Elipse 141" cx="23.802" cy="23.802" r="23.802" transform="translate(177.611 143.927)" fill="#ffb8b8"/>
    <path id="Caminho_1828" data-name="Caminho 1828" d="M436.652,288.772c-7.161-9.76-25.835,1.883-48.284,10.2V275.851c18.467-8.13,29.236-10.475,41.484-2.04Z" transform="translate(-211.097 -130.224)" fill="#2f2e41"/>
    <circle id="Elipse_142" data-name="Elipse 142" cx="57.659" cy="57.659" r="57.659" transform="translate(586.488 0)" fill="#277ff2"/>
    <path id="Caminho_1829" data-name="Caminho 1829" d="M831.22,184.078a3.8,3.8,0,0,0,0,7.61h20.22v20.219a3.8,3.8,0,0,0,7.609,0V191.688h20.22a3.8,3.8,0,0,0,0-7.61h-20.22v-20.22a3.8,3.8,0,1,0-7.609,0v20.22Z" transform="translate(-211.097 -130.224)" fill="#fff"/>
  </g>
  <g transform="matrix(1, 0, 0, 1, 0, 0)" filter="url(#Retângulo_686)">
    <rect id="Retângulo_686-2" data-name="Retângulo 686" width="561" height="133" rx="66.5" transform="translate(380 277)" fill="#fff"/>
  </g>
  <g id="Camada_2" data-name="Camada 2" transform="translate(475 307.325)">
    <g id="Camada_1" data-name="Camada 1" transform="translate(0 0.05)">
      <g id="Grupo_753" data-name="Grupo 753" transform="translate(10.037)" clip-path="url(#clip-path)">
        <rect id="Retângulo_685" data-name="Retângulo 685" width="57.422" height="73.178" transform="translate(0 -0.053)" fill="url(#linear-gradient)"/>
      </g>
      <path id="Caminho_2153" data-name="Caminho 2153" d="M10.625,20.361l9.246-9.246a1.924,1.924,0,0,1,1.422-.588H42.917a2.191,2.191,0,0,0,2.191-2.138V2.158A2.138,2.138,0,0,1,45.878.49H11.256a1.892,1.892,0,0,0-1.411.545l-9.257,9.3A1.892,1.892,0,0,0,0,11.724V61.108a2,2,0,0,0,2,2h8.038V21.783a1.924,1.924,0,0,1,.588-1.422" transform="translate(0 -0.02)" fill="#1d1e30" fill-rule="evenodd"/>
      <text id="Paper_Capture" data-name="Paper Capture" transform="translate(89.265 52.707)" fill="#333" font-size="34" font-family="Poppins-SemiBold, Poppins" font-weight="600" letter-spacing="0.07em"><tspan x="0" y="0">Paper Capture</tspan></text>
    </g>
  </g>
</svg>
