<svg xmlns="http://www.w3.org/2000/svg" width="21.206" height="21.206" viewBox="0 0 21.206 21.206">
  <g id="Icon_feather-instagram" data-name="Icon feather-instagram" transform="translate(1.25 1.25)">
    <path id="Caminho_464" data-name="Caminho 464" d="M7.677,3H17.03a4.676,4.676,0,0,1,4.677,4.676v9.353a4.676,4.676,0,0,1-4.677,4.676H7.677A4.676,4.676,0,0,1,3,17.029V7.676A4.676,4.676,0,0,1,7.677,3Z" transform="translate(-3 -3)" fill="none" stroke="#fff" stroke-linecap="round" stroke-linejoin="round" stroke-width="2.5"/>
    <path id="Caminho_465" data-name="Caminho 465" d="M19.507,15.127a3.741,3.741,0,1,1-3.152-3.152,3.741,3.741,0,0,1,3.152,3.152Z" transform="translate(-6.413 -6.364)" fill="none" stroke="#fff" stroke-linecap="round" stroke-linejoin="round" stroke-width="2.5"/>
    <path id="Caminho_466" data-name="Caminho 466" d="M26.25,9.75h0" transform="translate(-11.753 -5.541)" fill="none" stroke="#fff" stroke-linecap="round" stroke-linejoin="round" stroke-width="2.5"/>
  </g>
</svg>
