<?xml version="1.0" encoding="UTF-8"?>
<!DOCTYPE svg PUBLIC "-//W3C//DTD SVG 1.1//EN" "http://www.w3.org/Graphics/SVG/1.1/DTD/svg11.dtd">
<!-- Creator: CorelDRAW 2017 -->
<svg xmlns="http://www.w3.org/2000/svg" xml:space="preserve" width="70.9mm" height="10.3457mm" version="1.1" style="shape-rendering:geometricPrecision; text-rendering:geometricPrecision; image-rendering:optimizeQuality; fill-rule:evenodd; clip-rule:evenodd"
viewBox="0 0 6145 897"
 xmlns:xlink="http://www.w3.org/1999/xlink">
 <defs>
  <style type="text/css">
   <![CDATA[
    .fil0 {fill:#FBAF40;fill-rule:nonzero}
    .fil1 {fill:#036A98;fill-rule:nonzero}
   ]]>
  </style>
 </defs>
 <g id="Camada_x0020_1">
  <metadata id="CorelCorpID_0Corel-Layer"/>
  <polygon class="fil0" points="398,529 777,897 398,897 "/>
  <path class="fil1" d="M761 0c30,0 73,0 101,1 15,0 26,1 27,1 15,2 66,8 113,39 2,1 26,14 50,42 25,27 39,55 39,55 3,4 10,20 10,22 4,11 7,18 10,29 8,29 9,61 9,64 0,30 1,72 0,84 0,10 -2,28 -2,28 -2,22 -11,48 -17,63 -3,7 -5,12 -6,13 -5,12 -12,24 -20,35 -3,4 -6,8 -9,12 -17,22 -38,42 -57,54 -1,1 -15,10 -29,17 -22,11 -28,10 -28,10 0,0 194,193 285,283 8,8 10,19 6,29 -4,10 -14,17 -24,17l-198 0 -497 -501 347 0c7,0 14,-3 19,-8 5,-5 8,-11 8,-19l0 -133c0,-15 -12,-26 -26,-26l-662 0 0 687 -182 0c-7,0 -14,-3 -19,-8 -5,-5 -8,-11 -8,-18l0 -844c0,-15 11,-26 26,-26l733 0 1 0z"/>
  <path class="fil1" d="M1368 26c0,-7 3,-13 7,-19 4,-5 11,-8 20,-8l179 0c7,0 13,3 19,7 6,5 9,11 9,19l0 657 332 0c7,0 13,3 19,7 5,5 8,11 8,20l0 159c0,7 -3,13 -7,19 -4,6 -11,9 -20,9l-539 0c-18,0 -27,-9 -27,-27l0 -843 1 0z"/>
  <path class="fil1" d="M2234 884c-4,-7 -8,-15 -11,-22 -3,-8 -6,-15 -10,-24l-310 -811 -1 -6 -1 -5c0,-11 8,-17 22,-17l194 0c15,0 26,8 31,23l184 550c17,-46 32,-92 47,-137 15,-45 30,-91 45,-137 15,-46 29,-91 45,-137 15,-45 31,-91 47,-137 6,-15 17,-23 33,-23l190 0c9,0 16,2 20,5 4,3 6,8 6,13 0,3 0,6 -1,6l0 2 -311 811c-2,6 -4,12 -7,19 -3,7 -6,13 -10,19 -4,6 -8,11 -13,15 -5,4 -10,6 -17,6l-149 0c-12,1 -21,-4 -25,-12z"/>
  <path class="fil0" d="M3205 653l79 0 0 -283 95 0 0 -66 -268 0 0 66 94 0 0 283zm424 -212l-128 0 0 -73 136 0 0 -65 -215 0 0 349 223 0 0 -65 -143 0 0 -83 128 0 0 -64zm313 140c-16,6 -42,11 -66,11 -70,0 -112,-44 -112,-114 0,-78 49,-116 111,-116 28,0 50,6 66,13l16 -63c-14,-7 -45,-16 -86,-16 -106,0 -191,66 -191,185 0,100 62,175 183,175 42,0 75,-8 90,-15l-12 -62zm136 71l0 -105c0,-57 -1,-106 -3,-152l1 -1c17,41 40,86 61,123l75 135 83 0 0 -349 -73 0 0 102c0,52 2,100 7,146l-1 0c-16,-39 -36,-83 -57,-120l-73 -128 -92 0 0 349 73 0zm439 -355c-103,0 -170,78 -170,183 0,99 61,178 164,178 102,0 171,-69 171,-184 0,-96 -58,-177 -166,-177zm-2 63c54,0 85,54 85,117 0,68 -31,119 -84,119 -53,0 -85,-48 -85,-117 0,-68 31,-119 84,-119zm220 292l218 0 0 -66 -139 0 0 -283 -79 0 0 349zm399 -355c-103,0 -170,78 -170,183 0,99 61,178 164,178 102,0 171,-69 171,-184 0,-96 -58,-177 -166,-177zm-2 63c54,0 85,54 85,117 0,68 -31,119 -84,119 -53,0 -85,-48 -85,-117 0,-68 31,-119 84,-119zm511 92l-130 0 0 62 54 0 0 73c-6,3 -21,5 -39,5 -65,0 -110,-43 -110,-114 0,-76 50,-113 116,-113 38,0 62,7 81,15l17 -63c-17,-8 -52,-17 -97,-17 -114,0 -199,66 -199,182 0,51 17,97 49,127 32,31 78,47 142,47 46,0 92,-11 117,-20l0 -184zm62 -149l0 349 79 0 0 -349 -79 0zm329 260l27 90 85 0 -108 -349 -103 0 -107 349 82 0 25 -90 100 0zm-89 -59l21 -74c6,-20 11,-47 16,-67l1 0c5,21 11,47 18,67l22 74 -77 0z"/>
 </g>
</svg>
