<svg id="communications_2_" data-name="communications (2)" xmlns="http://www.w3.org/2000/svg" width="17.001" height="17.001" viewBox="0 0 17.001 17.001">
  <g id="Grupo_609" data-name="Grupo 609">
    <path id="Caminho_1049" data-name="Caminho 1049" d="M15.637,11.159a9.653,9.653,0,0,1-3.031-.483,1.386,1.386,0,0,0-1.348.284L9.346,12.4A10.564,10.564,0,0,1,4.6,7.655L6,5.793A1.374,1.374,0,0,0,6.335,4.4a9.667,9.667,0,0,1-.485-3.036A1.366,1.366,0,0,0,4.486,0H1.364A1.366,1.366,0,0,0,0,1.364,15.654,15.654,0,0,0,15.637,17,1.366,1.366,0,0,0,17,15.637V12.523A1.366,1.366,0,0,0,15.637,11.159Z" fill="#00d679"/>
  </g>
</svg>
