<svg xmlns="http://www.w3.org/2000/svg" width="17.126" height="15.902" viewBox="0 0 17.126 15.902">
  <path id="Icon_ionic-ios-star" data-name="Icon ionic-ios-star" d="M18.726,8.88H13.1l-1.709-5.1a.619.619,0,0,0-1.162,0L8.523,8.88H2.862a.613.613,0,0,0-.612.612.449.449,0,0,0,.011.1.588.588,0,0,0,.256.432l4.622,3.257L5.365,18.44a.613.613,0,0,0,.21.688.592.592,0,0,0,.344.149A.749.749,0,0,0,6.3,19.14l4.511-3.215,4.511,3.215a.716.716,0,0,0,.382.138.549.549,0,0,0,.34-.149.606.606,0,0,0,.21-.688l-1.774-5.157L19.066,10l.111-.1a.585.585,0,0,0-.451-1.021Z" transform="translate(-2.25 -3.375)" fill="#f2da64"/>
</svg>
